<?xml version="1.0" standalone="no"?>
<!DOCTYPE svg PUBLIC "-//W3C//DTD SVG 20010904//EN"
 "http://www.w3.org/TR/2001/REC-SVG-20010904/DTD/svg10.dtd">
<svg version="1.0" xmlns="http://www.w3.org/2000/svg"
 width="16.000000pt" height="16.000000pt" viewBox="0 0 16.000000 16.000000"
 preserveAspectRatio="xMidYMid meet">
<metadata>
Created by potrace 1.11, written by Peter Selinger 2001-2013
</metadata>
<g transform="translate(0.000000,16.000000) scale(0.002000,-0.002000)"
fill="#000000" stroke="none">
<path d="M0 7730 l0 -269 803 -3 c789 -3 804 -4 910 -26 629 -133 1079 -554
1242 -1162 58 -217 55 -58 55 -3296 l0 -2974 265 0 264 0 3 898 c4 890 4 898
26 1006 60 284 164 551 294 756 30 47 528 733 1108 1525 583 798 1064 1465
1078 1495 17 38 25 74 26 117 1 55 -2 66 -25 88 -14 15 -43 30 -65 35 -22 6
-581 10 -1296 10 l-1258 0 0 740 0 740 1718 -3 c1885 -3 1739 1 1928 -62 388
-130 720 -466 849 -859 49 -153 60 -234 59 -471 -1 -194 -4 -238 -28 -369 -69
-381 -132 -554 -306 -837 -36 -57 -558 -763 -1162 -1568 -778 -1037 -1104
-1481 -1120 -1520 l-23 -56 -3 -832 -2 -833 1330 0 1330 0 0 4000 0 4000
-4000 0 -4000 0 0 -270z"/>
<path d="M0 2991 l0 -2991 605 0 605 0 -2 2823 -3 2822 -22 57 c-27 73 -88
163 -133 200 -20 15 -63 38 -95 50 -58 22 -72 23 -507 26 l-448 3 0 -2990z"/>
</g>
</svg>
